<?xml version="1.0" standalone="no"?>
<!DOCTYPE svg PUBLIC "-//W3C//DTD SVG 20010904//EN"
 "http://www.w3.org/TR/2001/REC-SVG-20010904/DTD/svg10.dtd">
<svg version="1.0" xmlns="http://www.w3.org/2000/svg"
 width="700.000000pt" height="700.000000pt" viewBox="0 0 700.000000 700.000000"
 preserveAspectRatio="xMidYMid meet">
<metadata>
Created by potrace 1.14, written by Peter Selinger 2001-2017
</metadata>
<g transform="translate(0.000000,700.000000) scale(0.100000,-0.100000)"
fill="#000000" stroke="none">
<path d="M3278 6996 c-1 -2 -42 -6 -89 -10 -47 -4 -95 -8 -105 -10 -10 -2 -46
-7 -79 -12 -33 -4 -62 -8 -65 -9 -3 0 -27 -5 -55 -10 -27 -4 -57 -10 -65 -12
-8 -2 -27 -5 -41 -7 -101 -16 -486 -134 -604 -186 -367 -162 -601 -302 -880
-524 -158 -127 -455 -429 -550 -560 -16 -23 -32 -43 -35 -46 -29 -26 -191
-274 -265 -405 -197 -353 -328 -724 -395 -1119 -22 -132 -25 -151 -37 -286
-15 -164 -8 -589 12 -711 2 -13 6 -46 10 -74 9 -76 16 -116 25 -160 5 -22 11
-53 14 -70 36 -196 129 -482 243 -742 4 -9 -8 -13 -43 -14 -82 0 -137 -10
-183 -33 -63 -30 -86 -65 -86 -129 0 -65 31 -112 89 -137 48 -21 164 -41 328
-55 99 -8 99 -8 133 -62 166 -267 466 -607 704 -799 13 -10 28 -24 35 -29 51
-47 406 -295 422 -295 2 0 23 -12 46 -26 60 -38 299 -156 401 -198 175 -72
465 -162 614 -191 79 -15 253 -44 293 -49 169 -22 559 -28 735 -13 632 57
1234 282 1750 656 50 35 97 72 107 80 9 9 31 27 49 41 85 64 255 225 389 370
89 96 229 277 330 428 30 45 62 84 70 86 8 3 50 8 94 11 111 9 284 40 328 58
49 21 82 83 76 142 -12 101 -79 140 -256 147 -38 2 -61 7 -58 13 171 395 265
753 304 1155 9 101 8 493 -1 605 -62 697 -319 1332 -765 1892 -78 97 -348 378
-444 461 -69 59 -287 221 -370 275 -416 268 -901 455 -1353 523 -27 4 -57 9
-65 10 -8 2 -42 6 -76 9 -33 4 -74 9 -90 11 -33 5 -540 14 -546 10z m507 -710
c662 -70 1267 -364 1727 -841 277 -287 479 -609 620 -990 33 -87 93 -294 102
-347 3 -18 12 -69 21 -112 8 -44 18 -100 21 -125 2 -25 9 -77 13 -116 14 -113
6 -495 -13 -625 -20 -138 -48 -274 -82 -395 -26 -93 -114 -338 -119 -333 -2 2
-5 50 -6 108 -4 148 -15 205 -48 254 -56 81 -198 132 -401 143 -63 3 -117 7
-119 10 -3 2 -6 95 -7 206 -2 191 -8 346 -19 465 -9 95 -16 167 -20 197 -26
205 -35 263 -66 420 -11 55 -23 111 -25 125 -19 96 -46 192 -120 420 -97 301
-160 382 -298 382 -152 0 -260 -177 -373 -612 -19 -74 -37 -146 -39 -160 -2
-14 -11 -54 -19 -90 -21 -98 -70 -378 -81 -460 -2 -19 -6 -48 -8 -65 -3 -16
-8 -57 -12 -90 -3 -33 -8 -68 -10 -77 -1 -9 -6 -48 -10 -85 -10 -100 -12 -116
-13 -134 -1 -20 -28 -29 -56 -19 -16 6 -20 17 -21 76 -6 195 -15 230 -99 414
-35 74 -77 175 -94 224 -27 77 -85 279 -96 334 -1 9 -17 82 -35 162 -17 80
-34 156 -36 170 -10 55 -88 416 -124 575 -74 319 -97 381 -153 415 -40 25
-109 26 -143 3 l-26 -17 7 80 c3 43 8 104 11 134 2 30 6 71 9 90 2 19 7 76 11
125 3 50 8 99 9 110 1 11 3 30 4 43 1 23 1 23 104 17 56 -3 116 -8 132 -9z
m-631 -43 c-3 -21 -14 -78 -24 -128 -20 -95 -75 -386 -85 -445 -3 -19 -10 -59
-16 -89 -6 -30 -12 -64 -14 -75 -1 -12 -7 -48 -13 -81 -6 -33 -14 -73 -17 -90
-5 -28 -8 -47 -20 -105 -8 -40 -21 -118 -29 -165 -3 -16 -14 -77 -25 -135 -11
-58 -23 -121 -26 -140 -3 -19 -11 -55 -16 -80 -12 -50 -13 -58 -23 -115 -16
-88 -99 -456 -127 -558 -16 -60 -49 -162 -73 -227 -55 -145 -66 -204 -69 -350
l-2 -115 -36 -3 -36 -3 -7 73 c-4 40 -9 87 -11 103 -12 86 -26 196 -30 240 -3
28 -8 61 -10 75 -7 40 -19 111 -30 190 -19 133 -85 421 -140 605 -112 383
-193 505 -337 507 -135 1 -217 -121 -327 -487 -43 -140 -112 -421 -125 -510
-3 -16 -12 -70 -20 -120 -9 -49 -18 -110 -21 -134 -3 -23 -7 -55 -9 -70 -3
-14 -8 -58 -11 -97 -3 -39 -7 -80 -9 -90 -4 -19 -17 -205 -22 -309 -1 -27 -2
-132 -3 -231 l-1 -182 -42 -6 c-24 -3 -72 -8 -108 -11 -36 -2 -100 -7 -143
-10 -136 -9 -218 -63 -249 -162 -14 -48 -23 -54 -31 -20 -3 12 -16 65 -30 117
-14 52 -27 109 -30 125 -3 17 -10 55 -16 85 -28 151 -36 263 -36 480 0 173 6
293 19 370 3 14 7 43 10 65 2 22 9 60 15 85 5 25 13 61 16 80 16 95 88 329
144 465 66 162 253 500 284 513 4 2 7 8 7 13 0 15 113 161 199 259 410 464
971 785 1571 899 204 39 191 39 184 -6z m311 -1023 c10 -121 13 -161 20 -245
3 -44 8 -96 10 -115 3 -19 7 -60 10 -90 3 -30 8 -75 11 -100 2 -25 7 -70 10
-100 2 -30 6 -66 9 -80 2 -14 13 -100 25 -191 11 -92 23 -176 25 -187 3 -20
-1 -21 -103 -19 -59 1 -128 -2 -154 -7 l-47 -8 5 28 c2 16 13 74 23 129 11 55
23 120 27 145 4 25 8 47 9 50 1 3 5 34 9 70 5 36 10 72 11 80 3 14 16 107 20
140 1 8 5 43 9 77 4 34 9 72 11 85 3 12 7 50 10 83 3 33 8 71 10 85 3 21 8 60
20 155 1 11 3 38 4 59 2 59 9 40 16 -44z m-1537 -1388 c-1 -15 11 -101 28
-207 3 -16 7 -48 9 -70 2 -22 9 -80 14 -130 6 -49 13 -146 16 -215 15 -344 20
-379 62 -467 46 -93 108 -143 198 -157 19 -3 52 -9 72 -12 97 -15 432 -8 512
11 20 5 13 -6 -37 -59 -112 -120 -188 -251 -238 -411 -28 -88 -29 -94 -29
-330 0 -209 5 -345 21 -565 2 -30 6 -86 9 -125 2 -38 7 -107 11 -153 3 -51 2
-82 -4 -82 -6 0 -59 20 -119 44 -457 184 -863 491 -1170 886 -109 141 -105
128 -99 296 2 82 5 179 5 217 l1 67 68 -5 c37 -4 78 -8 92 -10 59 -9 199 -19
242 -17 89 2 167 55 196 133 6 14 13 54 16 89 4 36 9 81 11 100 3 19 7 105 10
190 6 187 15 369 20 430 2 25 7 83 10 130 3 47 8 96 10 110 2 14 7 50 10 80 3
30 8 66 10 80 23 150 29 179 36 175 4 -3 7 -13 7 -23z m3056 -117 c37 -216 49
-381 61 -835 10 -386 25 -452 119 -516 51 -35 124 -43 329 -38 103 2 187 1
188 -3 1 -5 3 -64 4 -133 6 -217 14 -391 20 -400 6 -10 -50 -82 -137 -177
-250 -270 -508 -463 -833 -624 -127 -63 -365 -160 -374 -153 -1 1 4 54 13 116
14 99 19 145 31 298 17 203 22 504 11 625 -27 282 -120 484 -308 668 l-38 37
62 -6 c35 -4 151 -7 258 -7 284 0 341 17 412 127 62 97 76 160 83 374 3 81 7
171 10 202 7 60 11 94 20 185 4 33 15 120 26 193 10 74 19 141 19 150 0 34 9
2 24 -83z m-1453 -1500 c199 -53 332 -248 354 -520 3 -38 8 -99 11 -135 2 -36
7 -78 9 -95 3 -16 7 -48 10 -70 3 -22 7 -53 10 -70 3 -16 7 -48 10 -70 3 -22
10 -65 15 -95 5 -30 12 -73 15 -95 4 -22 10 -56 15 -75 5 -19 11 -51 14 -70 3
-20 14 -65 25 -100 12 -36 21 -66 21 -67 0 -1 -19 -4 -42 -8 -24 -4 -51 -9
-62 -11 -10 -2 -44 -6 -75 -10 -31 -3 -65 -8 -76 -11 -37 -9 -470 -11 -540 -2
-38 5 -92 11 -120 14 -27 3 -85 13 -129 21 -43 7 -80 14 -82 14 -2 0 -1 21 1
48 4 43 7 106 20 377 3 50 7 135 10 190 4 55 8 134 10 175 14 324 48 449 149
551 108 109 275 153 427 114z"/>
</g>
</svg>
